C:\GBW_MyPrograms\KinderuniversiteitApp\Resultaten\w_group_2_3\Ellis_model12_v2.mot
version=1
nRows=12
nColumns=31
inDegrees=yes
endheader
                time	         pelvis_tilt	           pelvis_tx	           pelvis_ty	       hip_flexion_r	        knee_angle_r	       ankle_angle_r	       hip_flexion_l	        knee_angle_l	       ankle_angle_l	    lumbar_extension	          arm_flex_r	          arm_flex_l	hamstrings_r/activation	bifemsh_r/activation	glut_max_r/activation	iliopsoas_r/activation	rect_fem_r/activation	  vasti_r/activation	gastroc_r/activation	 soleus_r/activation	tib_ant_r/activation	hamstrings_l/activation	bifemsh_l/activation	glut_max_l/activation	iliopsoas_l/activation	rect_fem_l/activation	  vasti_l/activation	gastroc_l/activation	 soleus_l/activation	tib_ant_l/activation	
          0.33612550	         -0.36710054	          0.44708059	          0.48363346	        -18.28980703	        -14.58998794	        -32.57131655	         28.48963296	        -13.06022351	        -17.42958444	         -3.08377244	         59.78094682	         59.78021862	          0.11069328	          0.30459601	          0.15707510	          0.47132497	          0.98674100	          0.45214188	          0.47385897	          0.60280207	          0.24075478	          0.89301622	          0.10898659	          0.96179271	          0.09896209	          0.15471058	          0.53990610	          0.05037696	          0.05043370	          0.37119151	
          0.34284801	         -0.20122873	          0.46122061	          0.48251752	        -19.73769706	        -13.84352365	        -34.25891648	         24.98794418	        -10.19208834	        -16.39645246	         -2.01807338	         59.46043342	         59.45980144	          0.15658984	          0.27406337	          0.41655453	          0.42375977	          0.98878613	          0.62046034	          0.42663739	          0.54256433	          0.31780229	          0.92575174	          0.10020950	          0.95460516	          0.08945570	          0.13954282	          0.48541623	          0.07455525	          0.07689674	          0.33403207	
          0.34957052	         -0.02321594	          0.47518801	          0.48158950	        -21.42336104	        -12.58542944	        -35.06621330	         21.61500721	         -7.77438233	        -15.08908918	         -0.94574600	         58.98371521	         58.98325716	          0.14481663	          0.24665705	          0.59663184	          0.38094457	          0.99054842	          0.73617680	          0.38418618	          0.48839209	          0.35638941	          0.94843288	          0.09536667	          0.95497868	          0.08088108	          0.12591041	          0.43638951	          0.06776321	          0.06913276	          0.30085362	
          0.35629303	          0.13271490	          0.48854192	          0.48117926	        -23.13237908	        -10.94507546	        -34.87346940	         18.66097499	         -5.87717237	        -13.80713795	          0.05041827	         58.45026199	         58.45053577	          0.13063683	          0.22206296	          0.54615244	          0.34266639	          0.99238488	          0.66219306	          0.34603263	          0.43966306	          0.42826612	          0.96389142	          0.37485250	          0.85863708	          0.07320832	          0.11364841	          0.39218897	          0.06262689	          0.06206989	          0.27097991	
          0.36301554	          0.24687352	          0.50110161	          0.48147237	        -24.71929287	         -9.08364323	        -33.63273239	         16.21220387	         -4.58767164	        -12.44131605	          0.93811103	         58.04481315	         58.04528613	          0.11847645	          0.20005276	          0.49193749	          0.30823899	          0.98884760	          0.59552007	          0.31174620	          0.39585344	          0.51063056	          0.97470032	          0.56725885	          0.77211060	          0.06621424	          0.10260204	          0.35261882	          0.35064878	          0.05650446	          0.24391060	
          0.36973804	          0.35420455	          0.51298512	          0.48255083	        -26.19993346	         -7.01094167	        -31.47397141	         14.12175983	         -3.70603835	        -11.40314079	          1.70996050	         57.75286381	         57.75403928	          0.10748150	          0.18039415	          0.44282060	          0.27733378	          0.89021270	          0.53554878	          0.28091298	          0.35640345	          0.65980563	          0.98110194	          0.70048660	          0.69431487	          0.32769208	          0.09264545	          0.31707867	          0.40735541	          0.21010598	          0.21957749	
          0.37646055	          0.49734611	          0.52438852	          0.48438183	        -27.63762899	         -4.65070933	        -28.98289325	         12.27485592	         -3.13575656	        -10.81369232	          2.37291968	         57.35062912	         57.35254929	          0.13642446	          0.16301509	          0.39851133	          0.24948169	          0.80071128	          0.48166121	          0.25316865	          0.32088998	          0.76376602	          0.88365136	          0.79255912	          0.62440771	          0.53534715	          0.08363588	          0.28519467	          0.36757577	          0.19218358	          0.19772018	
          0.38318306	          0.68808824	          0.53537582	          0.48673175	        -29.00786612	         -2.10360465	        -27.00485683	         10.70155263	         -3.05153698	        -10.34036482	          2.92074400	         56.78155407	         56.78448176	          0.12373631	          0.14946497	          0.35860662	          0.22621663	          0.72027792	          0.43319617	          0.22813949	          0.28884759	          0.83594177	          0.79487012	          0.85622972	          0.56157254	          0.67893228	          0.07539071	          0.25657698	          0.33074657	          0.17311258	          0.17808429	
          0.38990557	          0.92746629	          0.54594602	          0.48937547	        -30.24456551	          0.35284706	        -25.48028155	          9.51355999	         -3.70375460	         -9.74827262	          3.33957614	         56.04544639	         56.04965031	          0.12514068	          0.14387872	          0.32270674	          0.34662564	          0.64772691	          0.38968714	          0.20569664	          0.26006804	          0.88513327	          0.71502947	          0.90004054	          0.50508906	          0.77800209	          0.06781715	          0.23085067	          0.29739327	          0.15558283	          0.16043134	
          0.39662808	          1.20365386	          0.55607368	          0.49214479	        -31.24545964	          2.42661384	        -23.71865902	          8.80315528	         -5.25434819	         -8.94641580	          3.62300296	         55.14235735	         55.14802568	          0.11374391	          0.40773803	          0.29040467	          0.54865102	          0.58239300	          0.35055721	          0.18538055	          0.23412390	          0.92006391	          0.64319164	          0.92936402	          0.45428486	          0.84638065	          0.06163119	          0.20769729	          0.26737272	          0.13971362	          0.14465311	
          0.40335059	          1.50259549	          0.56574775	          0.49497971	        -31.87862865	          3.85995020	        -22.32288321	          8.59099784	         -7.70814446	         -7.97081996	          3.77049642	         54.07247262	         54.07981527	          0.11035935	          0.47589797	          0.26134670	          0.68763115	          0.52363879	          0.31540181	          0.16707892	          0.21074282	          0.94383123	          0.57860838	          0.83650000	          0.40859231	          0.79315277	          0.35146039	          0.18683379	          0.24038569	          0.12545146	          0.40889311	
          0.41007310	          1.81323462	          0.57497616	          0.49768154	        -32.01347016	          4.36373772	        -20.99856596	          8.80278392	        -10.81633132	         -7.01591871	          3.78356141	         52.83617796	         52.84501044	          0.10054809	          0.63628959	          0.23522137	          0.78406781	          0.47069413	          0.28380385	          0.15880328	          0.18984301	          0.95979169	          0.52055800	          0.75229321	          0.36749623	          0.71338416	          0.55183870	          0.16808239	          0.21615108	          0.11267420	          0.59169395	
